<svg width="124" height="32" viewBox="0 0 124 32" fill="none" xmlns="http://www.w3.org/2000/svg">
<path d="M40.3124 6.91518C39.8072 5.67908 39.1102 4.58132 38.2406 3.65425C37.3711 2.72718 36.3414 1.98406 35.182 1.44547C34.0157 0.905419 32.7708 0.631714 31.4803 0.631714C30.1138 0.631714 28.8288 0.920135 27.6612 1.48815C26.5018 2.05322 25.4832 2.8243 24.6371 3.7808C23.7937 4.73289 23.123 5.83507 22.6454 7.05644C22.1651 8.2837 21.9208 9.56394 21.9208 10.8618C21.9208 12.2657 22.1775 13.6004 22.6854 14.8291C23.1878 16.049 23.8779 17.1379 24.7351 18.065C25.595 18.995 26.6191 19.7396 27.7785 20.2767C28.9434 20.8168 30.1884 21.0905 31.4803 21.0905C31.9316 21.0905 32.3871 21.0566 32.8315 20.989C33.2746 20.9213 33.7176 20.8197 34.1482 20.6843L34.8853 20.4533L34.503 19.7426C34.4298 19.6057 34.405 19.5159 34.3967 19.4644L34.3829 19.3761L34.347 19.2952C34.1924 18.942 34.071 18.6124 33.9854 18.3152L33.8197 17.7383L33.269 17.8737C32.975 17.9458 32.6728 18.0061 32.3705 18.0547C32.0834 18.1003 31.7839 18.1239 31.4789 18.1239C30.5458 18.1239 29.6625 17.9311 28.8523 17.5514C28.0324 17.1674 27.3092 16.6435 26.7005 15.9931C26.0918 15.3456 25.6019 14.5686 25.2416 13.6828C24.8841 12.8057 24.7033 11.8566 24.7033 10.8604C24.7033 9.86561 24.8841 8.92382 25.2402 8.06003C25.6019 7.18447 26.0946 6.40602 26.7047 5.74236C27.312 5.08311 28.0352 4.55336 28.8523 4.17076C29.6625 3.7911 30.5458 3.59833 31.4789 3.59833C32.4133 3.59833 33.3035 3.7911 34.1262 4.17223C34.9529 4.55483 35.6803 5.08311 36.289 5.74383C36.899 6.4075 37.3918 7.19182 37.752 8.07769C38.1095 8.95473 38.2903 9.89209 38.2903 10.8618V21.0154H41.0729V10.8618C41.077 9.48595 40.8203 8.15862 40.3124 6.91518Z" fill="#464646"/>
<path d="M77.4131 10.1761V10.8236C77.4131 11.8199 77.2323 12.769 76.8748 13.646C76.5159 14.529 76.0246 15.3074 75.4159 15.9563C74.8072 16.6053 74.0784 17.1292 73.2489 17.5118C72.4263 17.8929 71.5347 18.0857 70.6016 18.0857C70.4539 18.0857 70.3159 18.0812 70.1876 18.0695C70.0564 18.0577 69.9143 18.04 69.7528 18.0165C68.9274 17.9002 68.1476 17.631 67.4312 17.216C66.7108 16.7966 66.0745 16.261 65.5431 15.6223C65.0103 14.9851 64.5852 14.2494 64.2802 13.4356C63.9779 12.6307 63.8247 11.7522 63.8247 10.8236C63.8247 9.82887 64.0055 8.88708 64.3616 8.02329C64.7218 7.1492 65.2146 6.36928 65.826 5.70562C66.4333 5.04637 67.1566 4.51662 67.9737 4.13402C68.7839 3.75436 69.6672 3.56159 70.6003 3.56159C71.5347 3.56159 72.4208 3.74847 73.2337 4.11783C73.8631 4.40478 74.4442 4.78591 74.9673 5.25386L68.2677 12.3967L72.1323 12.4644L78.9134 5.23473L77.3786 3.59838C76.4938 2.65659 75.4573 1.912 74.2965 1.38813C73.1316 0.86279 71.888 0.594971 70.6003 0.594971C69.3097 0.594971 68.0717 0.86279 66.9192 1.38813C65.775 1.91052 64.7343 2.65218 63.8164 3.60426C62.9344 4.57106 62.2443 5.68207 61.7654 6.90492C61.2851 8.13218 61.0408 9.45068 61.0408 10.8236C61.0408 12.0921 61.2588 13.3238 61.6895 14.4833C62.1174 15.6385 62.7122 16.6818 63.4576 17.5824C64.2015 18.4844 65.0904 19.2408 66.0993 19.8324C67.1124 20.4269 68.229 20.8109 69.4188 20.9728C69.6203 20.9993 69.8163 21.0199 70.0081 21.0331C70.1986 21.0464 70.396 21.0537 70.6003 21.0537C71.888 21.0537 73.1302 20.7948 74.291 20.2827C75.4559 19.7706 76.4966 19.0171 77.3772 18.0503C78.2854 17.0821 78.9893 15.9696 79.4696 14.7423C79.9499 13.5136 80.1942 12.1966 80.1942 10.8236V10.1761H77.4131Z" fill="#464646"/>
<path d="M123.24 6.91518C122.734 5.67908 122.037 4.58132 121.168 3.65425C120.298 2.72718 119.27 1.98406 118.109 1.44547C116.943 0.905419 115.698 0.631714 114.407 0.631714C113.041 0.631714 111.756 0.920135 110.588 1.48815C109.429 2.05175 108.41 2.8243 107.563 3.7808C106.72 4.73436 106.049 5.83507 105.571 7.05644C105.091 8.2837 104.847 9.56394 104.847 10.8618C104.847 12.2657 105.103 13.6004 105.611 14.8291C106.114 16.049 106.804 17.1379 107.661 18.065C108.521 18.995 109.545 19.7396 110.704 20.2767C111.869 20.8168 113.114 21.0905 114.406 21.0905C114.857 21.0905 115.313 21.0566 115.757 20.989C116.2 20.9213 116.643 20.8197 117.074 20.6843L117.812 20.4518L117.429 19.7411C117.356 19.6057 117.331 19.5159 117.322 19.4644L117.309 19.3761L117.273 19.2952C117.118 18.942 116.997 18.6124 116.911 18.3152L116.746 17.7383L116.195 17.8737C115.899 17.9458 115.597 18.0076 115.296 18.0547C115.009 18.1003 114.708 18.1239 114.405 18.1239C113.472 18.1239 112.588 17.9311 111.778 17.5514C110.958 17.1674 110.235 16.6435 109.626 15.9931C109.018 15.3456 108.526 14.5686 108.167 13.6828C107.81 12.8057 107.629 11.8566 107.629 10.8604C107.629 9.86561 107.81 8.92382 108.166 8.06003C108.526 7.18594 109.019 6.40602 109.63 5.74383C110.238 5.08458 110.961 4.55483 111.778 4.17223C112.588 3.79257 113.472 3.5998 114.405 3.5998C115.338 3.5998 116.229 3.79257 117.052 4.1737C117.879 4.5563 118.607 5.08606 119.215 5.7453C119.825 6.4075 120.318 7.1933 120.678 8.07769C121.035 8.95473 121.216 9.89209 121.216 10.8618V21.0154H124V10.8618C124.003 9.48595 123.746 8.15862 123.24 6.91518Z" fill="#464646"/>
<path d="M9.84381 0.70871H0V20.9776H2.73148V3.62088H9.84381C13.4918 3.62088 16.4593 6.78468 16.4593 10.674V20.9791H19.1907V10.674C19.1907 5.17924 14.9976 0.70871 9.84381 0.70871Z" fill="#464646"/>
<path d="M58.218 0.708777L52.0539 17.1782C51.8276 17.7815 51.4383 18.1421 51.0132 18.1421C50.5867 18.1421 50.1975 17.7801 49.9712 17.1753L43.8264 0.708777H40.8865L47.4329 18.251C48.0775 19.98 49.4494 21.0542 51.0132 21.0542C52.5729 21.0542 53.9435 19.983 54.5908 18.2583L61.1703 0.707306H58.218V0.708777Z" fill="#464646"/>
<path d="M93.1679 28.4941C89.3833 28.4941 86.304 25.2111 86.304 21.1761V20.5286H83.5725V21.1761C83.5725 26.8165 87.8775 31.4062 93.1679 31.4062C93.2079 31.4062 93.2465 31.4033 93.2852 31.4033V28.4911C93.2465 28.4911 93.2079 28.4941 93.1679 28.4941Z" fill="#1AAAB2"/>
<path d="M99.4747 21.0598C99.4747 21.0981 99.4747 21.1364 99.4747 21.1746C99.4747 25.1669 96.4589 28.4219 92.7281 28.4896V31.4018C97.9647 31.3341 102.206 26.7738 102.206 21.1746C102.206 21.1319 102.203 21.0907 102.202 21.0495H99.4747V21.0598Z" fill="url(#paint0_linear_2_214)"/>
<path d="M102.205 10.8239C102.205 9.06097 101.784 7.40108 101.045 5.95162C99.418 2.7628 96.2476 0.59375 92.6093 0.59375C88.9724 0.59375 85.8006 2.7628 84.1733 5.95162C83.4335 7.40108 83.0139 9.06097 83.0139 10.8239C83.0139 11.0314 83.0222 11.2388 83.0332 11.4434C83.036 11.5023 83.0415 11.5611 83.0457 11.62C83.0567 11.7774 83.0719 11.9334 83.0898 12.0894C83.0953 12.1409 83.1009 12.1939 83.1078 12.2454C83.134 12.4455 83.1644 12.6427 83.2016 12.8384C83.2085 12.8723 83.2154 12.9046 83.2223 12.9385C83.2555 13.1033 83.2913 13.2666 83.3314 13.427C83.3452 13.4829 83.3604 13.5403 83.3742 13.5963C83.4156 13.7522 83.4597 13.9067 83.508 14.0613C83.5191 14.098 83.5301 14.1348 83.5412 14.1716C83.6019 14.357 83.6668 14.541 83.7372 14.7205C83.7537 14.7647 83.773 14.8073 83.791 14.8515C83.8476 14.9927 83.9069 15.1311 83.9704 15.2694C83.9939 15.3194 84.016 15.3709 84.0394 15.421C84.1167 15.5843 84.1982 15.7462 84.2823 15.9051C84.2879 15.9154 84.2934 15.9272 84.2989 15.9375C84.39 16.1052 84.4866 16.27 84.5874 16.4319C84.6164 16.4775 84.6453 16.5231 84.6743 16.5688C84.7516 16.6909 84.8331 16.8101 84.9159 16.9293C84.9462 16.972 84.9752 17.0161 85.0056 17.0573C85.1146 17.2089 85.2278 17.3575 85.3451 17.5017C85.3645 17.5267 85.3852 17.5488 85.4059 17.5738C85.5052 17.6945 85.6087 17.8137 85.7136 17.9299C85.7537 17.9741 85.7951 18.0182 85.8365 18.0624C85.9331 18.1654 86.0325 18.2654 86.1319 18.364C86.1664 18.3979 86.2009 18.4332 86.2368 18.467C86.3679 18.5906 86.5018 18.7113 86.6384 18.8276C86.6798 18.8629 86.7226 18.8967 86.7654 18.9306C86.8675 19.0144 86.971 19.0969 87.0759 19.1763C87.1284 19.216 87.1822 19.2558 87.2347 19.294C87.3478 19.3764 87.4638 19.4559 87.5811 19.5324C88.8827 20.3889 90.3871 20.926 92.0006 21.0334V21.0466H92.2573C92.3153 21.0496 92.3746 21.0496 92.4326 21.0511C92.4906 21.0525 92.5486 21.0555 92.6079 21.0555C92.6673 21.0555 92.7252 21.0525 92.7832 21.0511C92.8412 21.0496 92.9005 21.0481 92.9585 21.0466H93.2152V21.0334C94.8287 20.926 96.3331 20.3889 97.6347 19.5324C97.752 19.4559 97.868 19.3764 97.9811 19.294C98.035 19.2558 98.0874 19.216 98.1399 19.1763C98.2448 19.0969 98.3483 19.0144 98.4504 18.9306C98.4932 18.8953 98.536 18.8629 98.5774 18.8276C98.714 18.7113 98.8493 18.5906 98.979 18.467C99.0149 18.4332 99.0481 18.3979 99.0839 18.364C99.1847 18.2654 99.2827 18.1654 99.3793 18.0624C99.4097 18.03 99.44 17.9961 99.4704 17.9638V20.5316V21.0525H102.198H102.202V10.8239H102.205ZM99.4414 11.5376C99.4414 11.542 99.4414 11.5479 99.44 11.5523C99.4193 11.7818 99.3862 12.0085 99.3462 12.2307C99.3448 12.241 99.3434 12.2513 99.3407 12.2601C99.2993 12.4779 99.2482 12.6927 99.1902 12.9032C99.1861 12.9164 99.1833 12.9311 99.1792 12.9444C99.1212 13.1504 99.0536 13.3505 98.9777 13.5492C98.9708 13.5668 98.9652 13.5859 98.9583 13.6036C98.8838 13.7949 98.801 13.9833 98.7127 14.1657C98.7016 14.1878 98.692 14.2099 98.6809 14.232C98.5926 14.41 98.4973 14.5822 98.3952 14.7514C98.38 14.7764 98.3662 14.8014 98.351 14.8265C98.2503 14.9898 98.1426 15.1473 98.0308 15.3003C98.0101 15.3282 97.9908 15.3562 97.9701 15.3842C97.8597 15.5313 97.7424 15.6741 97.6209 15.8124C97.5947 15.8418 97.5698 15.8712 97.5436 15.9007C97.4235 16.0331 97.2979 16.1597 97.1696 16.2818C97.1378 16.3127 97.1061 16.3436 97.0743 16.373C96.946 16.4893 96.8148 16.6011 96.6782 16.7071C96.6409 16.7365 96.6023 16.7674 96.565 16.7954C96.4298 16.8969 96.2917 16.9926 96.1496 17.0838C96.1054 17.1118 96.0626 17.1397 96.0184 17.1677C95.8777 17.2545 95.7327 17.334 95.5864 17.4105C95.5381 17.4355 95.4884 17.4605 95.4401 17.4841C95.2938 17.5547 95.1448 17.6194 94.9929 17.6798C94.9405 17.7004 94.8867 17.721 94.8328 17.7416C94.681 17.7975 94.5264 17.846 94.3691 17.8917C94.3125 17.9079 94.2559 17.9226 94.1993 17.9373C94.042 17.977 93.8819 18.0109 93.7204 18.0388C93.6624 18.0491 93.603 18.058 93.5451 18.0668C93.3808 18.0903 93.2166 18.108 93.0496 18.1198C93.0192 18.1212 92.9916 18.1271 92.9612 18.1286H92.8743C92.8453 18.1301 92.8149 18.133 92.7859 18.133C92.728 18.1315 92.67 18.1286 92.6107 18.1286C92.5513 18.1286 92.4933 18.1315 92.4354 18.133C92.4064 18.1315 92.376 18.1301 92.347 18.1286H92.2601C92.2297 18.1271 92.2021 18.1212 92.1717 18.1198C92.0047 18.108 91.8391 18.0903 91.6762 18.0668C91.6169 18.058 91.5589 18.0491 91.501 18.0388C91.3395 18.0109 91.1794 17.977 91.022 17.9373C90.9654 17.9226 90.9088 17.9079 90.8522 17.8917C90.6949 17.8475 90.5403 17.7975 90.3885 17.7416C90.3347 17.7224 90.2822 17.7018 90.2284 17.6798C90.0766 17.6194 89.9275 17.5547 89.7812 17.4841C89.7315 17.4605 89.6832 17.4355 89.6349 17.4105C89.4886 17.3354 89.3437 17.2545 89.2029 17.1677C89.1587 17.1412 89.1159 17.1118 89.0718 17.0838C88.9296 16.9926 88.7916 16.8969 88.6563 16.7954C88.6177 16.7659 88.5804 16.7365 88.5431 16.7071C88.4079 16.5997 88.2754 16.4893 88.147 16.373C88.1139 16.3436 88.0835 16.3127 88.0518 16.2818C87.9234 16.1597 87.7978 16.0331 87.6777 15.9007C87.6515 15.8712 87.6266 15.8418 87.6004 15.8124C87.479 15.6741 87.3616 15.5313 87.2512 15.3842C87.2305 15.3562 87.2112 15.3282 87.1905 15.3003C87.0787 15.1473 86.971 14.9883 86.8703 14.8265C86.8551 14.8014 86.8413 14.7764 86.8261 14.7514C86.7254 14.5822 86.6287 14.41 86.5404 14.232C86.5294 14.2099 86.5197 14.1878 86.5087 14.1657C86.4203 13.9818 86.3375 13.7949 86.263 13.6036C86.2561 13.5859 86.2506 13.5668 86.2437 13.5492C86.1691 13.352 86.1015 13.1504 86.0421 12.9444C86.038 12.9311 86.0352 12.9164 86.0311 12.9032C85.9717 12.6927 85.9221 12.4779 85.8807 12.2601C85.8793 12.2498 85.8779 12.241 85.8751 12.2307C85.8337 12.0085 85.802 11.7818 85.7813 11.5523C85.7813 11.5479 85.7813 11.542 85.7799 11.5376C85.7578 11.3021 85.7468 11.0652 85.7468 10.8239C85.7468 10.4457 85.7744 10.0734 85.8254 9.71139C86.3292 6.20178 89.1794 3.50592 92.6107 3.50592C96.0405 3.50592 98.8907 6.20178 99.3959 9.71139C99.4483 10.0749 99.4746 10.4457 99.4746 10.8239C99.4746 11.0652 99.4621 11.3021 99.4414 11.5376Z" fill="#464646"/>
<defs>
<linearGradient id="paint0_linear_2_214" x1="97.4664" y1="31.402" x2="97.4664" y2="20.5281" gradientUnits="userSpaceOnUse">
<stop offset="0.25" stop-color="#1AAAB2"/>
<stop offset="0.95" stop-color="#484848"/>
</linearGradient>
</defs>
</svg>
